<svg width="309" height="80" viewBox="0 0 309 80" fill="none" xmlns="http://www.w3.org/2000/svg">
<path d="M39.1875 61.5312C33.3438 61.5312 28.0781 59.1562 24.2031 55.375H39.1875L29.9531 46.1406H5.34375V70.75L14.5781 80V63.0625C20.75 69.6563 29.4531 73.8438 39.1875 73.8438C56.8438 73.8438 71.3281 60.3281 72.875 43.0781H60.4062C58.9062 53.5 50.0313 61.5312 39.1875 61.5312ZM63.8125 0V16.9375C57.6406 10.3438 48.9375 6.15625 39.2031 6.15625C21.5312 6.15625 7.0625 19.6719 5.5 36.9219H17.9688C19.4688 26.5 28.3594 18.4531 39.2031 18.4531C45.0469 18.4531 50.3125 20.8281 54.1875 24.6094H39.2031L48.4375 33.8438H73.0469V9.23437L63.8125 0Z" fill="white"/>
<path d="M119.695 45.1C119.695 46.2467 119.455 47.3267 118.975 48.34C118.495 49.3267 117.709 50.1933 116.615 50.94C115.549 51.66 114.149 52.2333 112.415 52.66C110.709 53.0867 108.602 53.3 106.095 53.3C104.682 53.3 103.295 53.1933 101.935 52.98C100.602 52.7667 99.322 52.46 98.0953 52.06C96.8953 51.66 95.7753 51.18 94.7353 50.62C93.722 50.0333 92.842 49.3933 92.0953 48.7L94.0953 46.3C95.6153 47.6067 97.3886 48.6067 99.4153 49.3C101.442 49.9667 103.669 50.3 106.095 50.3C108.789 50.3 110.695 49.9267 111.815 49.18C112.935 48.4333 113.495 47.4067 113.495 46.1C113.495 45.0867 113.055 44.2333 112.175 43.54C111.295 42.8467 109.802 42.1667 107.695 41.5L100.095 39.1C97.5886 38.3 95.6953 37.2867 94.4153 36.06C93.1353 34.8067 92.4953 33.22 92.4953 31.3C92.4953 30.3133 92.722 29.3667 93.1753 28.46C93.6553 27.5267 94.3886 26.7133 95.3753 26.02C96.362 25.3 97.6153 24.74 99.1353 24.34C100.682 23.9133 102.535 23.7 104.695 23.7C106.002 23.7 107.295 23.8067 108.575 24.02C109.882 24.2333 111.122 24.54 112.295 24.94C113.495 25.34 114.602 25.8333 115.615 26.42C116.655 26.98 117.549 27.6067 118.295 28.3L116.295 30.7C114.775 29.3933 113.069 28.4067 111.175 27.74C109.282 27.0467 107.122 26.7 104.695 26.7C102.695 26.7 101.189 27.0467 100.175 27.74C99.1886 28.4333 98.6953 29.2867 98.6953 30.3C98.6953 30.86 98.7886 31.3533 98.9753 31.78C99.162 32.18 99.4686 32.5667 99.8953 32.94C100.349 33.2867 100.935 33.62 101.655 33.94C102.375 34.2333 103.269 34.5533 104.335 34.9L111.895 37.3C114.322 38.0733 116.229 39.0867 117.615 40.34C119.002 41.5933 119.695 43.18 119.695 45.1ZM133.195 43.3H128.995V52.5H123.395V24.5H128.995V40.5H133.195L139.395 31.7H145.395L138.395 41.7L145.795 52.5H139.395L133.195 43.3ZM154.481 52.5H148.881V32.1H154.481V52.5ZM154.681 26.7C154.681 27.5 154.401 28.2067 153.841 28.82C153.308 29.4067 152.588 29.7 151.681 29.7C150.775 29.7 150.041 29.4067 149.481 28.82C148.948 28.2067 148.681 27.5 148.681 26.7C148.681 25.9 148.948 25.2067 149.481 24.62C150.041 24.0067 150.775 23.7 151.681 23.7C152.561 23.7 153.281 24.0067 153.841 24.62C154.401 25.2067 154.681 25.9 154.681 26.7ZM165.583 52.5H159.983V24.5H165.583V52.5ZM176.494 52.5H170.894V24.5H176.494V52.5ZM207.805 45.1C207.805 46.2467 207.565 47.3267 207.085 48.34C206.605 49.3267 205.818 50.1933 204.725 50.94C203.658 51.66 202.258 52.2333 200.525 52.66C198.818 53.0867 196.711 53.3 194.205 53.3C192.791 53.3 191.405 53.1933 190.045 52.98C188.711 52.7667 187.431 52.46 186.205 52.06C185.005 51.66 183.885 51.18 182.845 50.62C181.831 50.0333 180.951 49.3933 180.205 48.7L182.205 46.3C183.725 47.6067 185.498 48.6067 187.525 49.3C189.551 49.9667 191.778 50.3 194.205 50.3C196.898 50.3 198.805 49.9267 199.925 49.18C201.045 48.4333 201.605 47.4067 201.605 46.1C201.605 45.0867 201.165 44.2333 200.285 43.54C199.405 42.8467 197.911 42.1667 195.805 41.5L188.205 39.1C185.698 38.3 183.805 37.2867 182.525 36.06C181.245 34.8067 180.605 33.22 180.605 31.3C180.605 30.3133 180.831 29.3667 181.285 28.46C181.765 27.5267 182.498 26.7133 183.485 26.02C184.471 25.3 185.725 24.74 187.245 24.34C188.791 23.9133 190.645 23.7 192.805 23.7C194.111 23.7 195.405 23.8067 196.685 24.02C197.991 24.2333 199.231 24.54 200.405 24.94C201.605 25.34 202.711 25.8333 203.725 26.42C204.765 26.98 205.658 27.6067 206.405 28.3L204.405 30.7C202.885 29.3933 201.178 28.4067 199.285 27.74C197.391 27.0467 195.231 26.7 192.805 26.7C190.805 26.7 189.298 27.0467 188.285 27.74C187.298 28.4333 186.805 29.2867 186.805 30.3C186.805 30.86 186.898 31.3533 187.085 31.78C187.271 32.18 187.578 32.5667 188.005 32.94C188.458 33.2867 189.045 33.62 189.765 33.94C190.485 34.2333 191.378 34.5533 192.445 34.9L200.005 37.3C202.431 38.0733 204.338 39.0867 205.725 40.34C207.111 41.5933 207.805 43.18 207.805 45.1ZM234.705 48.7H235.105L239.705 31.7H245.505L239.905 52.5H231.505L227.705 38.1H227.305L223.505 52.5H215.105L209.505 31.7H215.305L219.905 48.7H220.305L224.305 33.7H230.705L234.705 48.7ZM252.641 45.9C252.641 48.4333 254.174 49.7 257.241 49.7H262.841V42.1H257.241C254.174 42.1 252.641 43.3667 252.641 45.9ZM262.841 39.3C262.841 37.38 262.334 35.9667 261.321 35.06C260.334 34.1533 259.041 33.7 257.441 33.7C256.241 33.7 255.067 33.8867 253.921 34.26C252.774 34.6067 251.747 35.0867 250.841 35.7L249.441 33.3C250.027 32.9 250.667 32.5533 251.361 32.26C252.081 31.9667 252.814 31.7267 253.561 31.54C254.307 31.3267 255.041 31.1667 255.761 31.06C256.507 30.9533 257.201 30.9 257.841 30.9C259.547 30.9 261.054 31.1 262.361 31.5C263.667 31.9 264.774 32.4733 265.681 33.22C266.587 33.9667 267.267 34.86 267.721 35.9C268.201 36.9133 268.441 38.0467 268.441 39.3V52.5H257.241C253.614 52.5 250.934 51.9533 249.201 50.86C247.494 49.7667 246.641 48.1133 246.641 45.9C246.641 43.6867 247.494 42.0333 249.201 40.94C250.934 39.8467 253.614 39.3 257.241 39.3H262.841ZM279.122 34.5V49.7H284.122C285.029 49.7 285.855 49.5667 286.602 49.3C287.375 49.0067 288.029 48.5533 288.562 47.94C289.122 47.3267 289.549 46.54 289.842 45.58C290.162 44.62 290.322 43.46 290.322 42.1C290.322 40.74 290.162 39.58 289.842 38.62C289.549 37.66 289.122 36.8733 288.562 36.26C288.029 35.6467 287.375 35.2067 286.602 34.94C285.855 34.6467 285.029 34.5 284.122 34.5H279.122ZM284.122 31.7C285.962 31.7 287.629 31.94 289.122 32.42C290.642 32.9 291.935 33.5933 293.002 34.5C294.069 35.4067 294.882 36.5 295.442 37.78C296.029 39.06 296.322 40.5 296.322 42.1C296.322 43.7 296.029 45.14 295.442 46.42C294.882 47.7 294.069 48.7933 293.002 49.7C291.935 50.6067 290.642 51.3 289.122 51.78C287.629 52.26 285.962 52.5 284.122 52.5H279.122V59.7H273.522V31.7H284.122Z" fill="white"/>
</svg>
