<svg width="26" height="27" viewBox="0 0 26 27" fill="none" xmlns="http://www.w3.org/2000/svg">
<path d="M19.1141 17.4297L16.8969 15.2126L15.1915 14.508C15.7594 13.7005 16.0636 12.7372 16.0625 11.75C16.0625 9.09637 13.9036 6.9375 11.25 6.9375C8.59637 6.9375 6.4375 9.09637 6.4375 11.75C6.4375 14.4036 8.59637 16.5625 11.25 16.5625C12.2458 16.5636 13.2171 16.2542 14.0286 15.6772L14.7314 17.378L16.9484 19.5952C17.0906 19.7374 17.2594 19.8502 17.4452 19.9272C17.631 20.0041 17.8301 20.0438 18.0312 20.0438C18.2323 20.0438 18.4314 20.0042 18.6172 19.9272C18.803 19.8503 18.9718 19.7375 19.114 19.5953C19.2562 19.4531 19.369 19.2843 19.4459 19.0985C19.5229 18.9127 19.5625 18.7136 19.5625 18.5125C19.5625 18.3114 19.5229 18.1123 19.446 17.9265C19.369 17.7407 19.2562 17.5719 19.1141 17.4297ZM7.3125 11.75C7.3125 9.57891 9.07891 7.8125 11.25 7.8125C13.4211 7.8125 15.1875 9.57891 15.1875 11.75C15.1875 13.9211 13.4211 15.6875 11.25 15.6875C9.07891 15.6875 7.3125 13.9211 7.3125 11.75ZM18.4953 18.9765C18.3721 19.0994 18.2052 19.1684 18.0312 19.1684C17.8573 19.1684 17.6904 19.0994 17.5672 18.9765L15.4734 16.8828L14.8201 15.3013L16.4016 15.9547L18.4954 18.0484C18.6182 18.1716 18.6872 18.3385 18.6872 18.5125C18.6872 18.6865 18.6182 18.8534 18.4953 18.9765Z" fill="#40605A" fill-opacity="0.5"/>
</svg>
