<svg width="80" height="80" viewBox="0 0 80 80" fill="none" xmlns="http://www.w3.org/2000/svg">
<g style="mix-blend-mode:darken">
<path d="M38.6875 61.5312C32.8438 61.5312 27.5781 59.1562 23.7031 55.375H38.6875L29.4531 46.1406H4.84375V70.75L14.0781 80V63.0625C20.25 69.6563 28.9531 73.8438 38.6875 73.8438C56.3438 73.8438 70.8281 60.3281 72.375 43.0781H59.9062C58.4062 53.5 49.5313 61.5312 38.6875 61.5312ZM63.3125 0V16.9375C57.1406 10.3438 48.4375 6.15625 38.7031 6.15625C21.0312 6.15625 6.5625 19.6719 5 36.9219H17.4688C18.9688 26.5 27.8594 18.4531 38.7031 18.4531C44.5469 18.4531 49.8125 20.8281 53.6875 24.6094H38.7031L47.9375 33.8438H72.5469V9.23437L63.3125 0Z" fill="#006400"/>
</g>
</svg>
