<svg width="15" height="16" viewBox="0 0 15 16" fill="none" xmlns="http://www.w3.org/2000/svg">
<path d="M10.6326 4.00532L10.6326 4.00525C10.7041 3.03759 10.4019 2.15427 9.79903 1.50332C9.20343 0.860283 8.36807 0.5 7.42873 0.5C6.48156 0.5 5.64359 0.859272 5.05248 1.49644L10.6326 4.00532ZM10.6326 4.00532C10.4859 5.9929 8.98849 7.49995 7.42873 7.49995C5.86862 7.49995 4.36901 5.99224 4.2246 4.00535L10.6326 4.00532ZM4.22458 4.00518C4.15374 3.02479 4.45555 2.14003 5.05245 1.49647L4.22458 4.00518Z" stroke="#292826"/>
<path d="M13.7208 15.4997L13.7208 15.4997C13.811 15.5009 13.9004 15.4819 13.9824 15.4441C14.0644 15.4064 14.1369 15.3509 14.1947 15.2815L14.1952 15.281C14.3243 15.1267 14.3883 14.901 14.3431 14.6511L14.343 14.6509C14.0669 13.1192 13.2084 11.8299 11.8371 10.9157C10.6124 10.1 9.04664 9.64258 7.42873 9.64258C5.81074 9.64258 4.24507 10.0997 3.02047 10.9157L13.7208 15.4997ZM13.7208 15.4997H13.7144M13.7208 15.4997H13.7144M13.7144 15.4997H1.14305V15.4996M13.7144 15.4997L1.14305 15.4996M1.14305 15.4996L1.13655 15.4997M1.14305 15.4996L1.13655 15.4997M1.13655 15.4997C1.04632 15.5009 0.956954 15.4819 0.874966 15.4442C0.792979 15.4065 0.720429 15.351 0.662593 15.2817L0.662277 15.2814M1.13655 15.4997L0.662277 15.2814M0.662277 15.2814C0.533163 15.127 0.469203 14.9013 0.51437 14.6515L0.514416 14.6512M0.662277 15.2814L0.514416 14.6512M0.514416 14.6512C0.790508 13.1197 1.64904 11.8304 3.02032 10.9158L0.514416 14.6512Z" stroke="#292826"/>
</svg>
