<svg width="81" height="83" viewBox="0 0 81 83" fill="none" xmlns="http://www.w3.org/2000/svg">
<rect width="81" height="83" rx="12" fill="#F2F2F7"/>
<rect x="29" y="8" width="23" height="23" rx="2.5" fill="#F7F7F7" stroke="#F7F7F7"/>
<path d="M49.733 20.1887L49.7201 20.1739L49.6666 20.1204L47.8737 18.3275C47.7478 18.1907 47.5835 18.095 47.4024 18.0531C47.2212 18.0112 47.0316 18.025 46.8584 18.0926C46.6852 18.1602 46.5364 18.2786 46.4316 18.4322C46.3268 18.5858 46.2709 18.7675 46.2711 18.9535V21.0726L42.5783 24.7707V16.1928C42.5783 15.2134 42.1892 14.2741 41.4967 13.5816C40.8042 12.8891 39.8649 12.5 38.8855 12.5C37.9061 12.5 36.9669 12.8891 36.2743 13.5816C35.5818 14.2741 35.1928 15.2134 35.1928 16.1928C34.2134 16.1928 33.2741 16.5818 32.5816 17.2743C31.8891 17.9669 31.5 18.9061 31.5 19.8855C31.5 20.8649 31.8891 21.8042 32.5816 22.4967C33.2741 23.1892 34.2134 23.5783 35.1928 23.5783V25.4247C35.1928 25.9144 35.3873 26.384 35.7336 26.7303C36.0798 27.0765 36.5495 27.2711 37.0391 27.2711H40.7319C41.0426 27.2671 41.3471 27.1835 41.6163 27.0284C41.8855 26.8732 42.1104 26.6516 42.2696 26.3848L46.9369 21.7122H48.8966C49.0844 21.742 49.2769 21.7131 49.4477 21.6295C49.6185 21.5458 49.7593 21.4114 49.8508 21.2447C49.9424 21.078 49.9802 20.8871 49.9591 20.6981C49.938 20.509 49.859 20.3311 49.733 20.1887ZM32.4232 19.8855C32.4232 19.151 32.715 18.4465 33.2344 17.9271C33.7538 17.4077 34.4582 17.116 35.1928 17.116V22.6551C34.4582 22.6551 33.7538 22.3633 33.2344 21.8439C32.715 21.3245 32.4232 20.6201 32.4232 19.8855ZM36.116 16.1928C36.116 15.4582 36.4077 14.7538 36.9271 14.2344C37.4465 13.715 38.151 13.4232 38.8855 13.4232C39.6201 13.4232 40.3245 13.715 40.8439 14.2344C41.3633 14.7538 41.6551 15.4582 41.6551 16.1928H36.116Z" fill="#40605A"/>
<path d="M11.47 40.57C11.1993 40.0007 10.8073 39.562 10.294 39.254C9.78067 38.9367 9.18333 38.778 8.502 38.778C7.82067 38.778 7.20467 38.9367 6.654 39.254C6.11267 39.562 5.68333 40.01 5.366 40.598C5.058 41.1767 4.904 41.8487 4.904 42.614C4.904 43.3793 5.058 44.0513 5.366 44.63C5.68333 45.2087 6.11267 45.6567 6.654 45.974C7.20467 46.282 7.82067 46.436 8.502 46.436C9.454 46.436 10.238 46.1513 10.854 45.582C11.47 45.0127 11.8293 44.2427 11.932 43.272H8.04V42.236H13.29V43.216C13.2153 44.0187 12.9633 44.756 12.534 45.428C12.1047 46.0907 11.54 46.618 10.84 47.01C10.14 47.3927 9.36067 47.584 8.502 47.584C7.59667 47.584 6.77067 47.374 6.024 46.954C5.27733 46.5247 4.68467 45.932 4.246 45.176C3.81667 44.42 3.602 43.566 3.602 42.614C3.602 41.662 3.81667 40.808 4.246 40.052C4.68467 39.2867 5.27733 38.694 6.024 38.274C6.77067 37.8447 7.59667 37.63 8.502 37.63C9.538 37.63 10.4527 37.8867 11.246 38.4C12.0487 38.9133 12.632 39.6367 12.996 40.57H11.47ZM14.4985 43.636C14.4985 42.852 14.6572 42.166 14.9745 41.578C15.2918 40.9807 15.7258 40.5187 16.2765 40.192C16.8365 39.8653 17.4572 39.702 18.1385 39.702C18.8105 39.702 19.3938 39.8467 19.8885 40.136C20.3832 40.4253 20.7518 40.7893 20.9945 41.228V39.828H22.2825V47.5H20.9945V46.072C20.7425 46.52 20.3645 46.8933 19.8605 47.192C19.3658 47.4813 18.7872 47.626 18.1245 47.626C17.4432 47.626 16.8272 47.458 16.2765 47.122C15.7258 46.786 15.2918 46.3147 14.9745 45.708C14.6572 45.1013 14.4985 44.4107 14.4985 43.636ZM20.9945 43.65C20.9945 43.0713 20.8778 42.5673 20.6445 42.138C20.4112 41.7087 20.0938 41.382 19.6925 41.158C19.3005 40.9247 18.8665 40.808 18.3905 40.808C17.9145 40.808 17.4805 40.92 17.0885 41.144C16.6965 41.368 16.3838 41.6947 16.1505 42.124C15.9172 42.5533 15.8005 43.0573 15.8005 43.636C15.8005 44.224 15.9172 44.7373 16.1505 45.176C16.3838 45.6053 16.6965 45.9367 17.0885 46.17C17.4805 46.394 17.9145 46.506 18.3905 46.506C18.8665 46.506 19.3005 46.394 19.6925 46.17C20.0938 45.9367 20.4112 45.6053 20.6445 45.176C20.8778 44.7373 20.9945 44.2287 20.9945 43.65ZM25.7094 41.074C25.9334 40.6353 26.2508 40.2947 26.6614 40.052C27.0814 39.8093 27.5901 39.688 28.1874 39.688V41.004H27.8514C26.4234 41.004 25.7094 41.7787 25.7094 43.328V47.5H24.4354V39.828H25.7094V41.074ZM29.1821 43.636C29.1821 42.852 29.3407 42.166 29.6581 41.578C29.9754 40.9807 30.4094 40.5187 30.9601 40.192C31.5201 39.8653 32.1454 39.702 32.8361 39.702C33.4334 39.702 33.9887 39.842 34.5021 40.122C35.0154 40.3927 35.4074 40.752 35.6781 41.2V37.14H36.9661V47.5H35.6781V46.058C35.4261 46.5153 35.0527 46.8933 34.5581 47.192C34.0634 47.4813 33.4847 47.626 32.8221 47.626C32.1407 47.626 31.5201 47.458 30.9601 47.122C30.4094 46.786 29.9754 46.3147 29.6581 45.708C29.3407 45.1013 29.1821 44.4107 29.1821 43.636ZM35.6781 43.65C35.6781 43.0713 35.5614 42.5673 35.3281 42.138C35.0947 41.7087 34.7774 41.382 34.3761 41.158C33.9841 40.9247 33.5501 40.808 33.0741 40.808C32.5981 40.808 32.1641 40.92 31.7721 41.144C31.3801 41.368 31.0674 41.6947 30.8341 42.124C30.6007 42.5533 30.4841 43.0573 30.4841 43.636C30.4841 44.224 30.6007 44.7373 30.8341 45.176C31.0674 45.6053 31.3801 45.9367 31.7721 46.17C32.1641 46.394 32.5981 46.506 33.0741 46.506C33.5501 46.506 33.9841 46.394 34.3761 46.17C34.7774 45.9367 35.0947 45.6053 35.3281 45.176C35.5614 44.7373 35.6781 44.2287 35.6781 43.65ZM46.119 43.37C46.119 43.6127 46.105 43.8693 46.077 44.14H39.945C39.9917 44.896 40.2483 45.4887 40.715 45.918C41.191 46.338 41.765 46.548 42.437 46.548C42.9877 46.548 43.445 46.422 43.809 46.17C44.1823 45.9087 44.4437 45.5633 44.593 45.134H45.965C45.7597 45.8713 45.349 46.4733 44.733 46.94C44.117 47.3973 43.3517 47.626 42.437 47.626C41.709 47.626 41.0557 47.4627 40.477 47.136C39.9077 46.8093 39.4597 46.3473 39.133 45.75C38.8063 45.1433 38.643 44.4433 38.643 43.65C38.643 42.8567 38.8017 42.1613 39.119 41.564C39.4363 40.9667 39.8797 40.5093 40.449 40.192C41.0277 39.8653 41.6903 39.702 42.437 39.702C43.165 39.702 43.809 39.8607 44.369 40.178C44.929 40.4953 45.3583 40.934 45.657 41.494C45.965 42.0447 46.119 42.67 46.119 43.37ZM44.803 43.104C44.803 42.6187 44.6957 42.2033 44.481 41.858C44.2663 41.5033 43.9723 41.2373 43.599 41.06C43.235 40.8733 42.829 40.78 42.381 40.78C41.737 40.78 41.1863 40.9853 40.729 41.396C40.281 41.8067 40.0243 42.376 39.959 43.104H44.803ZM51.5387 39.688C52.472 39.688 53.228 39.9727 53.8067 40.542C54.3853 41.102 54.6747 41.914 54.6747 42.978V47.5H53.4147V43.16C53.4147 42.3947 53.2233 41.8113 52.8407 41.41C52.458 40.9993 51.9353 40.794 51.2727 40.794C50.6007 40.794 50.064 41.004 49.6627 41.424C49.2707 41.844 49.0747 42.4553 49.0747 43.258V47.5H47.8007V39.828H49.0747V40.92C49.3267 40.528 49.6673 40.2247 50.0967 40.01C50.5353 39.7953 51.016 39.688 51.5387 39.688ZM57.4137 38.582C57.1711 38.582 56.9657 38.498 56.7977 38.33C56.6297 38.162 56.5457 37.9567 56.5457 37.714C56.5457 37.4713 56.6297 37.266 56.7977 37.098C56.9657 36.93 57.1711 36.846 57.4137 36.846C57.6471 36.846 57.8431 36.93 58.0017 37.098C58.1697 37.266 58.2537 37.4713 58.2537 37.714C58.2537 37.9567 58.1697 38.162 58.0017 38.33C57.8431 38.498 57.6471 38.582 57.4137 38.582ZM58.0297 39.828V47.5H56.7557V39.828H58.0297ZM63.939 39.688C64.8724 39.688 65.6284 39.9727 66.207 40.542C66.7857 41.102 67.075 41.914 67.075 42.978V47.5H65.815V43.16C65.815 42.3947 65.6237 41.8113 65.241 41.41C64.8584 40.9993 64.3357 40.794 63.673 40.794C63.001 40.794 62.4644 41.004 62.063 41.424C61.671 41.844 61.475 42.4553 61.475 43.258V47.5H60.201V39.828H61.475V40.92C61.727 40.528 62.0677 40.2247 62.497 40.01C62.9357 39.7953 63.4164 39.688 63.939 39.688ZM72.3201 39.702C72.9828 39.702 73.5615 39.8467 74.0561 40.136C74.5601 40.4253 74.9335 40.7893 75.1761 41.228V39.828H76.4641V47.668C76.4641 48.368 76.3148 48.9887 76.0161 49.53C75.7175 50.0807 75.2881 50.51 74.7281 50.818C74.1775 51.126 73.5335 51.28 72.7961 51.28C71.7881 51.28 70.9481 51.042 70.2761 50.566C69.6041 50.09 69.2075 49.4413 69.0861 48.62H70.3461C70.4861 49.0867 70.7755 49.46 71.2141 49.74C71.6528 50.0293 72.1801 50.174 72.7961 50.174C73.4961 50.174 74.0655 49.9547 74.5041 49.516C74.9521 49.0773 75.1761 48.4613 75.1761 47.668V46.058C74.9241 46.506 74.5508 46.8793 74.0561 47.178C73.5615 47.4767 72.9828 47.626 72.3201 47.626C71.6388 47.626 71.0181 47.458 70.4581 47.122C69.9075 46.786 69.4735 46.3147 69.1561 45.708C68.8388 45.1013 68.6801 44.4107 68.6801 43.636C68.6801 42.852 68.8388 42.166 69.1561 41.578C69.4735 40.9807 69.9075 40.5187 70.4581 40.192C71.0181 39.8653 71.6388 39.702 72.3201 39.702ZM75.1761 43.65C75.1761 43.0713 75.0595 42.5673 74.8261 42.138C74.5928 41.7087 74.2755 41.382 73.8741 41.158C73.4821 40.9247 73.0481 40.808 72.5721 40.808C72.0961 40.808 71.6621 40.92 71.2701 41.144C70.8781 41.368 70.5655 41.6947 70.3321 42.124C70.0988 42.5533 69.9821 43.0573 69.9821 43.636C69.9821 44.224 70.0988 44.7373 70.3321 45.176C70.5655 45.6053 70.8781 45.9367 71.2701 46.17C71.6621 46.394 72.0961 46.506 72.5721 46.506C73.0481 46.506 73.4821 46.394 73.8741 46.17C74.2755 45.9367 74.5928 45.6053 74.8261 45.176C75.0595 44.7373 75.1761 44.2287 75.1761 43.65Z" fill="#707070"/>
<path d="M28.184 61.924L26.132 68.5H25.004L23.42 63.28L21.836 68.5H20.708L18.644 61.924H19.76L21.272 67.444L22.904 61.924H24.02L25.616 67.456L27.104 61.924H28.184ZM29.8318 60.856C29.6238 60.856 29.4478 60.784 29.3038 60.64C29.1598 60.496 29.0878 60.32 29.0878 60.112C29.0878 59.904 29.1598 59.728 29.3038 59.584C29.4478 59.44 29.6238 59.368 29.8318 59.368C30.0318 59.368 30.1998 59.44 30.3358 59.584C30.4798 59.728 30.5518 59.904 30.5518 60.112C30.5518 60.32 30.4798 60.496 30.3358 60.64C30.1998 60.784 30.0318 60.856 29.8318 60.856ZM30.3598 61.924V68.5H29.2678V61.924H30.3598ZM33.5529 62.824V66.7C33.5529 67.02 33.6209 67.248 33.7569 67.384C33.8929 67.512 34.1289 67.576 34.4649 67.576H35.2689V68.5H34.2849C33.6769 68.5 33.2209 68.36 32.9169 68.08C32.6129 67.8 32.4609 67.34 32.4609 66.7V62.824H31.6089V61.924H32.4609V60.268H33.5529V61.924H35.2689V62.824H33.5529ZM39.856 61.804C40.352 61.804 40.8 61.912 41.2 62.128C41.6 62.336 41.912 62.652 42.136 63.076C42.368 63.5 42.484 64.016 42.484 64.624V68.5H41.404V64.78C41.404 64.124 41.24 63.624 40.912 63.28C40.584 62.928 40.136 62.752 39.568 62.752C38.992 62.752 38.532 62.932 38.188 63.292C37.852 63.652 37.684 64.176 37.684 64.864V68.5H36.592V59.62H37.684V62.86C37.9 62.524 38.196 62.264 38.572 62.08C38.956 61.896 39.384 61.804 39.856 61.804ZM51.679 60.136V66.316C51.679 67.004 51.467 67.556 51.043 67.972C50.619 68.38 50.059 68.584 49.363 68.584C48.659 68.584 48.095 68.376 47.671 67.96C47.247 67.536 47.035 66.96 47.035 66.232H48.127C48.135 66.64 48.239 66.972 48.439 67.228C48.647 67.484 48.955 67.612 49.363 67.612C49.771 67.612 50.075 67.492 50.275 67.252C50.475 67.004 50.575 66.692 50.575 66.316V60.136H51.679ZM54.3943 60.856C54.1863 60.856 54.0103 60.784 53.8663 60.64C53.7223 60.496 53.6503 60.32 53.6503 60.112C53.6503 59.904 53.7223 59.728 53.8663 59.584C54.0103 59.44 54.1863 59.368 54.3943 59.368C54.5943 59.368 54.7623 59.44 54.8983 59.584C55.0423 59.728 55.1143 59.904 55.1143 60.112C55.1143 60.32 55.0423 60.496 54.8983 60.64C54.7623 60.784 54.5943 60.856 54.3943 60.856ZM54.9223 61.924V68.5H53.8303V61.924H54.9223ZM57.8754 59.62V68.5H56.7834V59.62H57.8754ZM60.8285 59.62V68.5H59.7365V59.62H60.8285Z" fill="#18322D"/>
</svg>
