<svg width="321" height="42" viewBox="0 0 321 42" fill="none" xmlns="http://www.w3.org/2000/svg">
<rect width="97" height="42" rx="12" fill="#F2F2F7"/>
<path d="M31.46 27.112C30.6813 27.112 29.9773 26.9787 29.348 26.712C28.7293 26.4453 28.2387 26.0613 27.876 25.56C27.5133 25.0587 27.3267 24.4667 27.316 23.784H29.716C29.748 24.2427 29.908 24.6053 30.196 24.872C30.4947 25.1387 30.9 25.272 31.412 25.272C31.9347 25.272 32.3453 25.1493 32.644 24.904C32.9427 24.648 33.092 24.3173 33.092 23.912C33.092 23.5813 32.9907 23.3093 32.788 23.096C32.5853 22.8827 32.3293 22.7173 32.02 22.6C31.7213 22.472 31.3053 22.3333 30.772 22.184C30.0467 21.9707 29.4547 21.7627 28.996 21.56C28.548 21.3467 28.1587 21.032 27.828 20.616C27.508 20.1893 27.348 19.624 27.348 18.92C27.348 18.2587 27.5133 17.6827 27.844 17.192C28.1747 16.7013 28.6387 16.328 29.236 16.072C29.8333 15.8053 30.516 15.672 31.284 15.672C32.436 15.672 33.3693 15.9547 34.084 16.52C34.8093 17.0747 35.2093 17.8533 35.284 18.856H32.82C32.7987 18.472 32.6333 18.1573 32.324 17.912C32.0253 17.656 31.6253 17.528 31.124 17.528C30.6867 17.528 30.3347 17.64 30.068 17.864C29.812 18.088 29.684 18.4133 29.684 18.84C29.684 19.1387 29.78 19.3893 29.972 19.592C30.1747 19.784 30.42 19.944 30.708 20.072C31.0067 20.1893 31.4227 20.328 31.956 20.488C32.6813 20.7013 33.2733 20.9147 33.732 21.128C34.1907 21.3413 34.5853 21.6613 34.916 22.088C35.2467 22.5147 35.412 23.0747 35.412 23.768C35.412 24.3653 35.2573 24.92 34.948 25.432C34.6387 25.944 34.1853 26.3547 33.588 26.664C32.9907 26.9627 32.2813 27.112 31.46 27.112ZM39.594 19.416C39.882 19.0107 40.2767 18.6747 40.778 18.408C41.29 18.1307 41.8713 17.992 42.522 17.992C43.2793 17.992 43.962 18.1787 44.57 18.552C45.1887 18.9253 45.674 19.4587 46.026 20.152C46.3887 20.8347 46.57 21.6293 46.57 22.536C46.57 23.4427 46.3887 24.248 46.026 24.952C45.674 25.6453 45.1887 26.184 44.57 26.568C43.962 26.952 43.2793 27.144 42.522 27.144C41.8713 27.144 41.2953 27.0107 40.794 26.744C40.3033 26.4773 39.9033 26.1413 39.594 25.736V31.224H37.354V18.136H39.594V19.416ZM44.282 22.536C44.282 22.0027 44.17 21.544 43.946 21.16C43.7327 20.7653 43.4447 20.4667 43.082 20.264C42.73 20.0613 42.346 19.96 41.93 19.96C41.5247 19.96 41.1407 20.0667 40.778 20.28C40.426 20.4827 40.138 20.7813 39.914 21.176C39.7007 21.5707 39.594 22.0347 39.594 22.568C39.594 23.1013 39.7007 23.5653 39.914 23.96C40.138 24.3547 40.426 24.6587 40.778 24.872C41.1407 25.0747 41.5247 25.176 41.93 25.176C42.346 25.176 42.73 25.0693 43.082 24.856C43.4447 24.6427 43.7327 24.3387 43.946 23.944C44.17 23.5493 44.282 23.08 44.282 22.536ZM52.1338 27.144C51.2804 27.144 50.5124 26.9573 49.8298 26.584C49.1471 26.2 48.6084 25.6613 48.2138 24.968C47.8298 24.2747 47.6378 23.4747 47.6378 22.568C47.6378 21.6613 47.8351 20.8613 48.2298 20.168C48.6351 19.4747 49.1844 18.9413 49.8778 18.568C50.5711 18.184 51.3444 17.992 52.1978 17.992C53.0511 17.992 53.8244 18.184 54.5178 18.568C55.2111 18.9413 55.7551 19.4747 56.1498 20.168C56.5551 20.8613 56.7578 21.6613 56.7578 22.568C56.7578 23.4747 56.5498 24.2747 56.1337 24.968C55.7284 25.6613 55.1738 26.2 54.4698 26.584C53.7764 26.9573 52.9978 27.144 52.1338 27.144ZM52.1338 25.192C52.5391 25.192 52.9178 25.096 53.2698 24.904C53.6324 24.7013 53.9204 24.4027 54.1338 24.008C54.3471 23.6133 54.4538 23.1333 54.4538 22.568C54.4538 21.7253 54.2298 21.08 53.7818 20.632C53.3444 20.1733 52.8058 19.944 52.1658 19.944C51.5258 19.944 50.9871 20.1733 50.5498 20.632C50.1231 21.08 49.9098 21.7253 49.9098 22.568C49.9098 23.4107 50.1178 24.0613 50.5338 24.52C50.9604 24.968 51.4938 25.192 52.1338 25.192ZM60.6409 19.512C60.9289 19.0427 61.3022 18.6747 61.7609 18.408C62.2302 18.1413 62.7635 18.008 63.3609 18.008V20.36H62.7689C62.0649 20.36 61.5315 20.5253 61.1689 20.856C60.8169 21.1867 60.6409 21.7627 60.6409 22.584V27H58.4009V18.136H60.6409V19.512ZM67.4776 19.976V24.264C67.4776 24.5627 67.547 24.7813 67.6856 24.92C67.835 25.048 68.0803 25.112 68.4216 25.112H69.4616V27H68.0536C66.1656 27 65.2216 26.0827 65.2216 24.248V19.976H64.1656V18.136H65.2216V15.944H67.4776V18.136H69.4616V19.976H67.4776Z" fill="#707070"/>
<rect x="112" width="97" height="42" rx="12" fill="#F2F2F7"/>
<path d="M125.88 19.192C125.624 18.7227 125.272 18.3653 124.824 18.12C124.376 17.8747 123.853 17.752 123.256 17.752C122.595 17.752 122.008 17.9013 121.496 18.2C120.984 18.4987 120.584 18.9253 120.296 19.48C120.008 20.0347 119.864 20.6747 119.864 21.4C119.864 22.1467 120.008 22.7973 120.296 23.352C120.595 23.9067 121.005 24.3333 121.528 24.632C122.051 24.9307 122.659 25.08 123.352 25.08C124.205 25.08 124.904 24.856 125.448 24.408C125.992 23.9493 126.349 23.3147 126.52 22.504H122.68V20.792H128.728V22.744C128.579 23.5227 128.259 24.2427 127.768 24.904C127.277 25.5653 126.643 26.0987 125.864 26.504C125.096 26.8987 124.232 27.096 123.272 27.096C122.195 27.096 121.219 26.856 120.344 26.376C119.48 25.8853 118.797 25.208 118.296 24.344C117.805 23.48 117.56 22.4987 117.56 21.4C117.56 20.3013 117.805 19.32 118.296 18.456C118.797 17.5813 119.48 16.904 120.344 16.424C121.219 15.9333 122.189 15.688 123.256 15.688C124.515 15.688 125.608 15.9973 126.536 16.616C127.464 17.224 128.104 18.0827 128.456 19.192H125.88ZM129.809 22.536C129.809 21.64 129.985 20.8453 130.337 20.152C130.7 19.4587 131.185 18.9253 131.793 18.552C132.412 18.1787 133.1 17.992 133.857 17.992C134.519 17.992 135.095 18.1253 135.585 18.392C136.087 18.6587 136.487 18.9947 136.785 19.4V18.136H139.041V27H136.785V25.704C136.497 26.12 136.097 26.4667 135.585 26.744C135.084 27.0107 134.503 27.144 133.841 27.144C133.095 27.144 132.412 26.952 131.793 26.568C131.185 26.184 130.7 25.6453 130.337 24.952C129.985 24.248 129.809 23.4427 129.809 22.536ZM136.785 22.568C136.785 22.024 136.679 21.56 136.465 21.176C136.252 20.7813 135.964 20.4827 135.601 20.28C135.239 20.0667 134.849 19.96 134.433 19.96C134.017 19.96 133.633 20.0613 133.281 20.264C132.929 20.4667 132.641 20.7653 132.417 21.16C132.204 21.544 132.097 22.0027 132.097 22.536C132.097 23.0693 132.204 23.5387 132.417 23.944C132.641 24.3387 132.929 24.6427 133.281 24.856C133.644 25.0693 134.028 25.176 134.433 25.176C134.849 25.176 135.239 25.0747 135.601 24.872C135.964 24.6587 136.252 24.36 136.465 23.976C136.679 23.5813 136.785 23.112 136.785 22.568ZM143.469 19.512C143.757 19.0427 144.13 18.6747 144.589 18.408C145.058 18.1413 145.592 18.008 146.189 18.008V20.36H145.597C144.893 20.36 144.36 20.5253 143.997 20.856C143.645 21.1867 143.469 21.7627 143.469 22.584V27H141.229V18.136H143.469V19.512ZM147.122 22.536C147.122 21.64 147.298 20.8453 147.65 20.152C148.012 19.4587 148.503 18.9253 149.122 18.552C149.74 18.1787 150.428 17.992 151.186 17.992C151.762 17.992 152.311 18.12 152.834 18.376C153.356 18.6213 153.772 18.952 154.082 19.368V15.16H156.354V27H154.082V25.688C153.804 26.1253 153.415 26.4773 152.914 26.744C152.412 27.0107 151.831 27.144 151.17 27.144C150.423 27.144 149.74 26.952 149.122 26.568C148.503 26.184 148.012 25.6453 147.65 24.952C147.298 24.248 147.122 23.4427 147.122 22.536ZM154.098 22.568C154.098 22.024 153.991 21.56 153.778 21.176C153.564 20.7813 153.276 20.4827 152.914 20.28C152.551 20.0667 152.162 19.96 151.746 19.96C151.33 19.96 150.946 20.0613 150.594 20.264C150.242 20.4667 149.954 20.7653 149.73 21.16C149.516 21.544 149.41 22.0027 149.41 22.536C149.41 23.0693 149.516 23.5387 149.73 23.944C149.954 24.3387 150.242 24.6427 150.594 24.856C150.956 25.0693 151.34 25.176 151.746 25.176C152.162 25.176 152.551 25.0747 152.914 24.872C153.276 24.6587 153.564 24.36 153.778 23.976C153.991 23.5813 154.098 23.112 154.098 22.568ZM166.782 22.376C166.782 22.696 166.76 22.984 166.718 23.24H160.238C160.291 23.88 160.515 24.3813 160.91 24.744C161.304 25.1067 161.79 25.288 162.366 25.288C163.198 25.288 163.79 24.9307 164.142 24.216H166.558C166.302 25.0693 165.811 25.7733 165.086 26.328C164.36 26.872 163.47 27.144 162.414 27.144C161.56 27.144 160.792 26.9573 160.11 26.584C159.438 26.2 158.91 25.6613 158.526 24.968C158.152 24.2747 157.965 23.4747 157.965 22.568C157.965 21.6507 158.152 20.8453 158.526 20.152C158.899 19.4587 159.422 18.9253 160.094 18.552C160.766 18.1787 161.539 17.992 162.414 17.992C163.256 17.992 164.008 18.1733 164.67 18.536C165.342 18.8987 165.859 19.416 166.222 20.088C166.595 20.7493 166.782 21.512 166.782 22.376ZM164.462 21.736C164.451 21.16 164.243 20.7013 163.838 20.36C163.432 20.008 162.936 19.832 162.35 19.832C161.795 19.832 161.326 20.0027 160.942 20.344C160.568 20.6747 160.339 21.1387 160.254 21.736H164.462ZM173.329 18.008C174.385 18.008 175.238 18.344 175.889 19.016C176.539 19.6773 176.865 20.6053 176.865 21.8V27H174.625V22.104C174.625 21.4 174.449 20.8613 174.097 20.488C173.745 20.104 173.265 19.912 172.657 19.912C172.038 19.912 171.547 20.104 171.185 20.488C170.833 20.8613 170.657 21.4 170.657 22.104V27H168.417V18.136H170.657V19.24C170.955 18.856 171.334 18.5573 171.793 18.344C172.262 18.12 172.774 18.008 173.329 18.008ZM180.131 17.08C179.736 17.08 179.405 16.9573 179.139 16.712C178.883 16.456 178.755 16.1413 178.755 15.768C178.755 15.3947 178.883 15.0853 179.139 14.84C179.405 14.584 179.736 14.456 180.131 14.456C180.525 14.456 180.851 14.584 181.107 14.84C181.373 15.0853 181.507 15.3947 181.507 15.768C181.507 16.1413 181.373 16.456 181.107 16.712C180.851 16.9573 180.525 17.08 180.131 17.08ZM181.235 18.136V27H178.995V18.136H181.235ZM188.36 18.008C189.416 18.008 190.269 18.344 190.92 19.016C191.57 19.6773 191.896 20.6053 191.896 21.8V27H189.656V22.104C189.656 21.4 189.48 20.8613 189.128 20.488C188.776 20.104 188.296 19.912 187.688 19.912C187.069 19.912 186.578 20.104 186.216 20.488C185.864 20.8613 185.688 21.4 185.688 22.104V27H183.448V18.136H185.688V19.24C185.986 18.856 186.365 18.5573 186.824 18.344C187.293 18.12 187.805 18.008 188.36 18.008ZM197.498 17.992C198.159 17.992 198.741 18.1253 199.242 18.392C199.743 18.648 200.138 18.984 200.426 19.4V18.136H202.682V27.064C202.682 27.8853 202.517 28.616 202.186 29.256C201.855 29.9067 201.359 30.4187 200.698 30.792C200.037 31.176 199.237 31.368 198.298 31.368C197.039 31.368 196.005 31.0747 195.194 30.488C194.394 29.9013 193.941 29.1013 193.834 28.088H196.058C196.175 28.4933 196.426 28.8133 196.81 29.048C197.205 29.2933 197.679 29.416 198.234 29.416C198.885 29.416 199.413 29.2187 199.818 28.824C200.223 28.44 200.426 27.8533 200.426 27.064V25.688C200.138 26.104 199.738 26.4507 199.226 26.728C198.725 27.0053 198.149 27.144 197.498 27.144C196.751 27.144 196.069 26.952 195.45 26.568C194.831 26.184 194.341 25.6453 193.978 24.952C193.626 24.248 193.45 23.4427 193.45 22.536C193.45 21.64 193.626 20.8453 193.978 20.152C194.341 19.4587 194.826 18.9253 195.434 18.552C196.053 18.1787 196.741 17.992 197.498 17.992ZM200.426 22.568C200.426 22.024 200.319 21.56 200.106 21.176C199.893 20.7813 199.605 20.4827 199.242 20.28C198.879 20.0667 198.49 19.96 198.074 19.96C197.658 19.96 197.274 20.0613 196.922 20.264C196.57 20.4667 196.282 20.7653 196.058 21.16C195.845 21.544 195.738 22.0027 195.738 22.536C195.738 23.0693 195.845 23.5387 196.058 23.944C196.282 24.3387 196.57 24.6427 196.922 24.856C197.285 25.0693 197.669 25.176 198.074 25.176C198.49 25.176 198.879 25.0747 199.242 24.872C199.605 24.6587 199.893 24.36 200.106 23.976C200.319 23.5813 200.426 23.112 200.426 22.568Z" fill="#707070"/>
<rect x="224" width="97" height="42" rx="12" fill="#F2F2F7"/>
<path d="M261.78 15.832V27H259.54V19.736L256.548 27H254.852L251.844 19.736V27H249.604V15.832H252.148L255.7 24.136L259.252 15.832H261.78ZM272.363 18.136V27H270.107V25.88C269.819 26.264 269.44 26.568 268.971 26.792C268.512 27.0053 268.011 27.112 267.467 27.112C266.773 27.112 266.16 26.968 265.627 26.68C265.093 26.3813 264.672 25.9493 264.363 25.384C264.064 24.808 263.915 24.1253 263.915 23.336V18.136H266.155V23.016C266.155 23.72 266.331 24.264 266.683 24.648C267.035 25.0213 267.515 25.208 268.123 25.208C268.741 25.208 269.227 25.0213 269.579 24.648C269.931 24.264 270.107 23.72 270.107 23.016V18.136H272.363ZM277.965 27.144C277.239 27.144 276.589 27.016 276.013 26.76C275.437 26.4933 274.978 26.136 274.637 25.688C274.306 25.24 274.125 24.744 274.093 24.2H276.349C276.391 24.5413 276.557 24.824 276.845 25.048C277.143 25.272 277.511 25.384 277.949 25.384C278.375 25.384 278.706 25.2987 278.941 25.128C279.186 24.9573 279.309 24.7387 279.309 24.472C279.309 24.184 279.159 23.9707 278.861 23.832C278.573 23.6827 278.109 23.5227 277.469 23.352C276.807 23.192 276.263 23.0267 275.837 22.856C275.421 22.6853 275.058 22.424 274.749 22.072C274.45 21.72 274.301 21.2453 274.301 20.648C274.301 20.1573 274.439 19.7093 274.717 19.304C275.005 18.8987 275.41 18.5787 275.933 18.344C276.466 18.1093 277.09 17.992 277.805 17.992C278.861 17.992 279.703 18.2587 280.333 18.792C280.962 19.3147 281.309 20.024 281.373 20.92H279.229C279.197 20.568 279.047 20.2907 278.781 20.088C278.525 19.8747 278.178 19.768 277.741 19.768C277.335 19.768 277.021 19.8427 276.797 19.992C276.583 20.1413 276.477 20.3493 276.477 20.616C276.477 20.9147 276.626 21.144 276.925 21.304C277.223 21.4533 277.687 21.608 278.317 21.768C278.957 21.928 279.485 22.0933 279.901 22.264C280.317 22.4347 280.674 22.7013 280.973 23.064C281.282 23.416 281.442 23.8853 281.453 24.472C281.453 24.984 281.309 25.4427 281.021 25.848C280.743 26.2533 280.338 26.5733 279.805 26.808C279.282 27.032 278.669 27.144 277.965 27.144ZM284.428 17.08C284.033 17.08 283.702 16.9573 283.436 16.712C283.18 16.456 283.052 16.1413 283.052 15.768C283.052 15.3947 283.18 15.0853 283.436 14.84C283.702 14.584 284.033 14.456 284.428 14.456C284.822 14.456 285.148 14.584 285.404 14.84C285.67 15.0853 285.804 15.3947 285.804 15.768C285.804 16.1413 285.67 16.456 285.404 16.712C285.148 16.9573 284.822 17.08 284.428 17.08ZM285.532 18.136V27H283.292V18.136H285.532ZM287.169 22.568C287.169 21.6507 287.355 20.8507 287.729 20.168C288.102 19.4747 288.619 18.9413 289.281 18.568C289.942 18.184 290.699 17.992 291.553 17.992C292.651 17.992 293.558 18.2693 294.273 18.824C294.998 19.368 295.483 20.136 295.729 21.128H293.313C293.185 20.744 292.966 20.4453 292.657 20.232C292.358 20.008 291.985 19.896 291.537 19.896C290.897 19.896 290.39 20.1307 290.017 20.6C289.643 21.0587 289.457 21.7147 289.457 22.568C289.457 23.4107 289.643 24.0667 290.017 24.536C290.39 24.9947 290.897 25.224 291.537 25.224C292.443 25.224 293.035 24.8187 293.313 24.008H295.729C295.483 24.968 294.998 25.7307 294.273 26.296C293.547 26.8613 292.641 27.144 291.553 27.144C290.699 27.144 289.942 26.9573 289.281 26.584C288.619 26.2 288.102 25.6667 287.729 24.984C287.355 24.2907 287.169 23.4853 287.169 22.568Z" fill="#707070"/>
</svg>
