<svg width="23" height="23" viewBox="0 0 23 23" fill="none" xmlns="http://www.w3.org/2000/svg">
<path d="M11.25 2.10938C7.75635 2.10938 4.92188 4.80718 4.92188 8.12988C4.92188 11.9531 9.14062 18.0119 10.6897 20.1045C10.754 20.1929 10.8383 20.2648 10.9356 20.3143C11.033 20.3639 11.1407 20.3897 11.25 20.3897C11.3593 20.3897 11.467 20.3639 11.5644 20.3143C11.6617 20.2648 11.746 20.1929 11.8103 20.1045C13.3594 18.0127 17.5781 11.9562 17.5781 8.12988C17.5781 4.80718 14.7437 2.10938 11.25 2.10938Z" stroke="#707070" stroke-width="1.40625" stroke-linecap="round" stroke-linejoin="round"/>
<path d="M11.25 10.5469C12.415 10.5469 13.3594 9.60248 13.3594 8.4375C13.3594 7.27252 12.415 6.32812 11.25 6.32812C10.085 6.32812 9.14062 7.27252 9.14062 8.4375C9.14062 9.60248 10.085 10.5469 11.25 10.5469Z" stroke="#707070" stroke-width="1.40625" stroke-linecap="round" stroke-linejoin="round"/>
</svg>
