<svg width="23" height="23" viewBox="0 0 23 23" fill="none" xmlns="http://www.w3.org/2000/svg">
<path d="M17.5509 3.76629C17.2996 3.78586 17.0594 3.87817 16.8597 4.03195C16.66 4.18574 16.5094 4.39433 16.4262 4.63228C16.3431 4.87024 16.331 5.12725 16.3915 5.37194C16.452 5.61663 16.5824 5.83842 16.7668 6.01024C17.4885 6.73051 18.0608 7.58634 18.4506 8.5285C18.8405 9.47067 19.0402 10.4806 19.0385 11.5002C19.0397 12.5198 18.8396 13.5295 18.4498 14.4716C18.06 15.4137 17.4881 16.2696 16.7668 16.9902C16.6415 17.1099 16.5413 17.2535 16.4722 17.4125C16.4032 17.5714 16.3665 17.7426 16.3645 17.9159C16.3626 18.0892 16.3952 18.2612 16.4606 18.4217C16.526 18.5822 16.6229 18.728 16.7454 18.8506C16.868 18.9731 17.0138 19.07 17.1743 19.1354C17.3348 19.2008 17.5068 19.2335 17.6801 19.2315C17.8534 19.2295 18.0246 19.1929 18.1835 19.1238C18.3425 19.0547 18.4861 18.9545 18.6058 18.8292C20.5457 16.8834 21.6351 14.2479 21.6351 11.5002C21.6351 8.75261 20.5457 6.11707 18.6058 4.17129C18.4871 4.04587 18.3447 3.94537 18.1867 3.87568C18.0288 3.80599 17.8585 3.76851 17.6859 3.76543C17.6409 3.76309 17.5958 3.76309 17.5509 3.76543V3.76629ZM4.65144 3.79226C4.36376 3.83041 4.09717 3.96386 3.89423 4.17129C1.95429 6.11707 0.864927 8.75261 0.864927 11.5002C0.864927 14.2479 1.95429 16.8834 3.89423 18.8292C4.01394 18.9545 4.15749 19.0547 4.31645 19.1238C4.47542 19.1929 4.64658 19.2295 4.8199 19.2315C4.99321 19.2335 5.16518 19.2008 5.32569 19.1354C5.4862 19.07 5.63202 18.9731 5.75458 18.8506C5.87714 18.728 5.97397 18.5822 6.03938 18.4217C6.10478 18.2612 6.13745 18.0892 6.13545 17.9159C6.13346 17.7426 6.09685 17.5714 6.02776 17.4125C5.95868 17.2535 5.85852 17.1099 5.73317 16.9902C5.01147 16.27 4.43924 15.4141 4.0494 14.472C3.65955 13.5298 3.45977 12.5199 3.46154 11.5002C3.46034 10.4807 3.66038 9.47092 4.05019 8.52883C4.44001 7.58674 5.01193 6.73086 5.73317 6.01024C5.9294 5.81967 6.06041 5.57199 6.10751 5.30254C6.15461 5.0331 6.1154 4.75566 5.99545 4.50982C5.87551 4.26399 5.68098 4.06233 5.43962 3.93362C5.19826 3.80491 4.92241 3.75488 4.65144 3.79226ZM7.95115 6.65927C7.66654 6.68988 7.40002 6.81371 7.19308 7.01149C6.56506 7.57885 6.06265 8.27128 5.71808 9.04431C5.37352 9.81735 5.19443 10.6539 5.19231 11.5002C5.19231 13.2725 5.94519 14.8839 7.16625 15.9899C7.29239 16.1053 7.44003 16.1947 7.60074 16.253C7.76145 16.3114 7.93207 16.3375 8.10287 16.3299C8.27368 16.3223 8.44131 16.2812 8.5962 16.2088C8.7511 16.1364 8.89022 16.0342 9.00562 15.9081C9.12103 15.7819 9.21046 15.6343 9.26881 15.4736C9.32715 15.3129 9.35328 15.1423 9.34568 14.9714C9.33809 14.8006 9.29693 14.633 9.22455 14.4781C9.15217 14.3232 9.04999 14.1841 8.92385 14.0687C8.56459 13.7445 8.27776 13.3482 8.08212 12.9056C7.88647 12.463 7.78641 11.9841 7.78846 11.5002C7.78667 11.0162 7.88693 10.5372 8.08271 10.0945C8.2785 9.65175 8.5654 9.25528 8.92471 8.93091C9.1321 8.75049 9.27686 8.50889 9.33813 8.24093C9.39941 7.97296 9.37404 7.69247 9.26568 7.43984C9.15731 7.18722 8.97155 6.97552 8.73516 6.83524C8.49877 6.69496 8.22481 6.63335 7.95115 6.65927ZM14.3602 6.65927C14.1028 6.67347 13.8554 6.764 13.6496 6.91934C13.4438 7.07467 13.2889 7.28777 13.2047 7.53146C13.1205 7.77515 13.1108 8.0384 13.1768 8.28764C13.2428 8.53687 13.3815 8.76082 13.5753 8.93091C13.9348 9.25511 14.2219 9.65154 14.4177 10.0943C14.6135 10.537 14.7136 11.0161 14.7115 11.5002C14.7133 11.9843 14.6131 12.4633 14.4173 12.906C14.2215 13.3487 13.9346 13.7452 13.5753 14.0696C13.4307 14.1776 13.3101 14.3146 13.2214 14.4718C13.1327 14.6291 13.0778 14.8031 13.0602 14.9827C13.0425 15.1624 13.0626 15.3438 13.119 15.5152C13.1754 15.6867 13.267 15.8446 13.3878 15.9787C13.5087 16.1128 13.6562 16.2202 13.8209 16.294C13.9856 16.3679 14.1639 16.4066 14.3445 16.4076C14.525 16.4087 14.7037 16.3721 14.8693 16.3001C15.0349 16.2282 15.1836 16.1225 15.3061 15.9899C15.9343 15.4225 16.437 14.7299 16.7817 13.9567C17.1264 13.1835 17.3056 12.3468 17.3077 11.5002C17.3109 10.6555 17.1369 9.81941 16.7969 9.04608C16.4569 8.27274 15.9584 7.57933 15.3337 7.01062C15.2042 6.88842 15.051 6.79416 14.8835 6.73372C14.716 6.67328 14.5379 6.64794 14.3602 6.65927ZM11.25 9.93216C10.9399 9.93233 10.6368 10.0244 10.3791 10.1968C10.1213 10.3693 9.92045 10.6142 9.8019 10.9008C9.68335 11.1873 9.65242 11.5026 9.71302 11.8067C9.77363 12.1108 9.92304 12.3901 10.1424 12.6093C10.3617 12.8286 10.6411 12.9778 10.9453 13.0382C11.2494 13.0987 11.5647 13.0676 11.8511 12.9489C12.1376 12.8302 12.3825 12.6292 12.5547 12.3713C12.727 12.1135 12.8189 11.8103 12.8189 11.5002C12.8193 11.2941 12.7789 11.0899 12.7002 10.8994C12.6215 10.7089 12.5059 10.5358 12.3602 10.3901C12.2144 10.2443 12.0413 10.1288 11.8508 10.05C11.6603 9.9713 11.4561 9.93182 11.25 9.93216Z" fill="#707070"/>
</svg>
