<svg width="14" height="14" viewBox="0 0 14 14" fill="none" xmlns="http://www.w3.org/2000/svg">
<path d="M12.875 7.68555H8.1875V12.373C8.1875 12.6217 8.08873 12.8601 7.91291 13.036C7.7371 13.2118 7.49864 13.3105 7.25 13.3105C7.00136 13.3105 6.7629 13.2118 6.58709 13.036C6.41127 12.8601 6.3125 12.6217 6.3125 12.373V7.68555H1.625C1.37636 7.68555 1.1379 7.58677 0.962088 7.41096C0.786272 7.23514 0.6875 6.99669 0.6875 6.74805C0.6875 6.49941 0.786272 6.26095 0.962088 6.08513C1.1379 5.90932 1.37636 5.81055 1.625 5.81055H6.3125V1.12305C6.3125 0.874406 6.41127 0.635949 6.58709 0.460134C6.7629 0.284319 7.00136 0.185547 7.25 0.185547C7.49864 0.185547 7.7371 0.284319 7.91291 0.460134C8.08873 0.635949 8.1875 0.874406 8.1875 1.12305V5.81055H12.875C13.1236 5.81055 13.3621 5.90932 13.5379 6.08513C13.7137 6.26095 13.8125 6.49941 13.8125 6.74805C13.8125 6.99669 13.7137 7.23514 13.5379 7.41096C13.3621 7.58677 13.1236 7.68555 12.875 7.68555Z" fill="#707070"/>
</svg>
