<svg width="40" height="40" viewBox="0 0 40 40" fill="none" xmlns="http://www.w3.org/2000/svg">
<circle cx="20" cy="20" r="19" fill="#707070" stroke="#707070" stroke-width="2"/>
<path d="M15.16 18.972C16.087 17.8783 17.3275 17.0955 18.7138 16.7297C20.1001 16.3638 21.5653 16.4325 22.9113 16.9264C24.2574 17.4203 25.4192 18.3156 26.2399 19.4913C27.0606 20.6669 27.5004 22.0662 27.5 23.5C27.5 23.8978 27.658 24.2794 27.9393 24.5607C28.2206 24.842 28.6022 25 29 25C29.3978 25 29.7794 24.842 30.0607 24.5607C30.342 24.2794 30.5 23.8978 30.5 23.5C30.5 17.977 26.023 13.5 20.5 13.5C19.1016 13.4985 17.7186 13.791 16.4406 14.3587C15.1627 14.9264 14.0184 15.7564 13.082 16.795L12.735 14.83C12.7043 14.6329 12.6346 14.4439 12.53 14.2741C12.4253 14.1043 12.2879 13.957 12.1256 13.841C11.9634 13.7249 11.7797 13.6424 11.5852 13.5982C11.3906 13.554 11.1893 13.5491 10.9928 13.5837C10.7964 13.6182 10.6088 13.6916 10.4411 13.7996C10.2734 13.9076 10.1288 14.0479 10.016 14.2124C9.90315 14.3768 9.82424 14.5622 9.7839 14.7575C9.74355 14.9528 9.74256 15.1543 9.781 15.35L10.823 21.26C10.892 21.651 11.113 22 11.44 22.228C11.843 22.51 12.374 22.573 12.825 22.43L18.469 21.434C18.6661 21.4033 18.8551 21.3336 19.0249 21.229C19.1947 21.1243 19.342 20.9869 19.458 20.8246C19.5741 20.6624 19.6566 20.4787 19.7008 20.2842C19.745 20.0897 19.7499 19.8883 19.7154 19.6918C19.6808 19.4954 19.6074 19.3078 19.4994 19.1401C19.3915 18.9724 19.2511 18.8278 19.0867 18.715C18.9222 18.6022 18.7368 18.5233 18.5415 18.4829C18.3462 18.4426 18.1447 18.4416 17.949 18.48L15.161 18.971L15.16 18.972Z" fill="#F7F7F7"/>
</svg>
