<svg width="18" height="16" viewBox="0 0 18 16" fill="none" xmlns="http://www.w3.org/2000/svg">
<path d="M9 9.83339C10.1138 9.83339 11.0167 9.01258 11.0167 8.00005C11.0167 6.98753 10.1138 6.16672 9 6.16672C7.88623 6.16672 6.98334 6.98753 6.98334 8.00005C6.98334 9.01258 7.88623 9.83339 9 9.83339Z" stroke="#4D423D" stroke-width="2" stroke-linecap="round" stroke-linejoin="round"/>
<path d="M13.9744 9.83339C13.885 10.0177 13.8583 10.2222 13.8978 10.4204C13.9374 10.6187 14.0413 10.8016 14.1963 10.9456L14.2366 10.9823C14.3616 11.0958 14.4608 11.2306 14.5284 11.379C14.5961 11.5273 14.6309 11.6864 14.6309 11.847C14.6309 12.0076 14.5961 12.1667 14.5284 12.315C14.4608 12.4634 14.3616 12.5982 14.2366 12.7117C14.1118 12.8254 13.9635 12.9155 13.8003 12.977C13.637 13.0385 13.4621 13.0702 13.2854 13.0702C13.1087 13.0702 12.9338 13.0385 12.7706 12.977C12.6074 12.9155 12.4591 12.8254 12.3342 12.7117L12.2939 12.6751C12.1355 12.5342 11.9342 12.4397 11.7162 12.4037C11.4981 12.3678 11.2732 12.392 11.0704 12.4734C10.8716 12.5509 10.7021 12.6795 10.5826 12.8434C10.4632 13.0074 10.3991 13.1995 10.3982 13.3962V13.5001C10.3982 13.8242 10.2566 14.1351 10.0044 14.3643C9.75232 14.5935 9.41035 14.7223 9.05378 14.7223C8.69721 14.7223 8.35525 14.5935 8.10312 14.3643C7.85098 14.1351 7.70934 13.8242 7.70934 13.5001V13.4451C7.70413 13.2428 7.63211 13.0466 7.50264 12.882C7.37316 12.7175 7.19222 12.5921 6.98334 12.5223C6.78058 12.4409 6.55567 12.4167 6.33761 12.4526C6.11954 12.4886 5.91832 12.5831 5.75989 12.7239L5.71956 12.7606C5.5947 12.8742 5.44642 12.9644 5.28321 13.0259C5.11999 13.0874 4.94505 13.1191 4.76837 13.1191C4.59168 13.1191 4.41674 13.0874 4.25352 13.0259C4.09031 12.9644 3.94203 12.8742 3.81717 12.7606C3.69217 12.6471 3.593 12.5123 3.52535 12.3639C3.45769 12.2156 3.42286 12.0565 3.42286 11.8959C3.42286 11.7353 3.45769 11.5762 3.52535 11.4279C3.593 11.2795 3.69217 11.1447 3.81717 11.0312L3.8575 10.9945C4.01248 10.8505 4.11643 10.6675 4.15597 10.4693C4.19551 10.2711 4.16882 10.0666 4.07934 9.88228C3.99413 9.70153 3.85263 9.54738 3.67228 9.4388C3.49193 9.33022 3.28059 9.27195 3.06428 9.27117H2.95C2.59344 9.27117 2.25147 9.1424 1.99934 8.91319C1.74721 8.68397 1.60556 8.3731 1.60556 8.04894C1.60556 7.72479 1.74721 7.41391 1.99934 7.1847C2.25147 6.95549 2.59344 6.82672 2.95 6.82672H3.0105C3.23301 6.82199 3.4488 6.75652 3.62982 6.63881C3.81085 6.52111 3.94874 6.35662 4.02556 6.16672C4.11504 5.9824 4.14174 5.77794 4.1022 5.5797C4.06266 5.38145 3.9587 5.19853 3.80373 5.0545L3.76339 5.01783C3.63839 4.90432 3.53923 4.76952 3.47157 4.62115C3.40391 4.47277 3.36909 4.31373 3.36909 4.15311C3.36909 3.99249 3.40391 3.83345 3.47157 3.68507C3.53923 3.5367 3.63839 3.4019 3.76339 3.28839C3.88826 3.17475 4.03653 3.0846 4.19975 3.02309C4.36296 2.96159 4.53791 2.92993 4.71459 2.92993C4.89127 2.92993 5.06622 2.96159 5.22943 3.02309C5.39264 3.0846 5.54092 3.17475 5.66578 3.28839L5.70612 3.32505C5.86454 3.46594 6.06577 3.56045 6.28383 3.59639C6.5019 3.63234 6.72681 3.60807 6.92956 3.52672H6.98334C7.18216 3.44925 7.35173 3.32063 7.47116 3.15667C7.5906 2.99272 7.6547 2.80059 7.65556 2.60394V2.50005C7.65556 2.1759 7.79721 1.86502 8.04934 1.63581C8.30147 1.4066 8.64344 1.27783 9 1.27783C9.35657 1.27783 9.69854 1.4066 9.95067 1.63581C10.2028 1.86502 10.3444 2.1759 10.3444 2.50005V2.55505C10.3453 2.7517 10.4094 2.94383 10.5288 3.10778C10.6483 3.27174 10.8178 3.40037 11.0167 3.47783C11.2194 3.55918 11.4443 3.58345 11.6624 3.5475C11.8805 3.51156 12.0817 3.41705 12.2401 3.27617L12.2804 3.2395C12.4053 3.12586 12.5536 3.03571 12.7168 2.9742C12.88 2.9127 13.055 2.88104 13.2316 2.88104C13.4083 2.88104 13.5833 2.9127 13.7465 2.9742C13.9097 3.03571 14.058 3.12586 14.1828 3.2395C14.3078 3.35301 14.407 3.48781 14.4747 3.63618C14.5423 3.78456 14.5771 3.9436 14.5771 4.10422C14.5771 4.26484 14.5423 4.42388 14.4747 4.57226C14.407 4.72063 14.3078 4.85543 14.1828 4.96894L14.1425 5.00561C13.9875 5.14964 13.8836 5.33256 13.844 5.53081C13.8045 5.72905 13.8312 5.93351 13.9207 6.11783V6.16672C14.0059 6.34747 14.1474 6.50162 14.3277 6.6102C14.5081 6.71878 14.7194 6.77705 14.9357 6.77783H15.05C15.4066 6.77783 15.7485 6.9066 16.0007 7.13581C16.2528 7.36502 16.3944 7.6759 16.3944 8.00005C16.3944 8.32421 16.2528 8.63509 16.0007 8.8643C15.7485 9.09351 15.4066 9.22228 15.05 9.22228H14.9895C14.7732 9.22306 14.5619 9.28133 14.3815 9.38991C14.2012 9.49849 14.0597 9.65264 13.9744 9.83339Z" stroke="#4D423D" stroke-width="2" stroke-linecap="round" stroke-linejoin="round"/>
</svg>
