<svg width="81" height="83" viewBox="0 0 81 83" fill="none" xmlns="http://www.w3.org/2000/svg">
<rect width="81" height="83" rx="12" fill="#F2F2F7"/>
<rect x="29" y="8" width="23" height="23" rx="2.5" fill="#F7F7F7" stroke="#F7F7F7"/>
<path d="M41.9913 10.5V10.9197H41.152V13.8572H43.67V10.9197H42.8307V10.5H41.9913ZM44.5093 12.5983V14.2769H36.5358V13.4376H35.6965V18.8931H34.8572V14.2769H34.4376C33.2606 14.2769 32.3393 15.1982 32.3393 16.3752C32.3393 17.362 32.7426 20.4914 32.759 20.6242L32.8114 20.9913H34.4376V21.411H34.0179V22.2503H35.6965V21.411H35.2769V20.9913H36.8637L37.2047 19.6275C37.2506 19.4406 37.4178 19.3127 37.6112 19.3127H39.8275C40.2373 19.3127 40.5865 19.5914 40.6537 19.9816C40.7078 20.2881 40.7324 20.6307 40.7324 20.9913C40.7324 21.352 40.7078 21.6946 40.6537 22.0011C40.5865 22.3913 40.2373 22.67 39.8275 22.67H33.5983C32.4409 22.67 31.5 23.6109 31.5 24.7682V26.8665C31.5 27.5599 32.0655 28.1255 32.759 28.1255H33.5983V28.5451H35.6965V28.1255H44.0896V28.5451H46.1879V28.1255H47.0272C47.7206 28.1255 48.2862 27.5599 48.2862 26.8665V16.3752C48.2862 15.2178 47.3452 14.2769 46.1879 14.2769H45.3486V12.5983H44.5093ZM49.0074 15.5358C49.0878 15.8014 49.1255 16.0834 49.1255 16.3752V19.3127H49.9648V15.5358H49.0074ZM44.5093 16.3752C45.2027 16.3752 45.7682 16.9407 45.7682 17.6341C45.7682 18.3275 45.2027 18.8931 44.5093 18.8931C43.8159 18.8931 43.2503 18.3275 43.2503 17.6341C43.2503 16.9407 43.8159 16.3752 44.5093 16.3752ZM44.5093 17.2145C44.2781 17.2145 44.0896 17.403 44.0896 17.6341C44.0896 17.8653 44.2781 18.0538 44.5093 18.0538C44.7404 18.0538 44.9289 17.8653 44.9289 17.6341C44.9289 17.403 44.7404 17.2145 44.5093 17.2145ZM44.5093 20.5717C45.6666 20.5717 46.6075 21.5126 46.6075 22.67C46.6075 23.8273 45.6666 24.7682 44.5093 24.7682C43.3519 24.7682 42.411 23.8273 42.411 22.67C42.411 21.5126 43.3519 20.5717 44.5093 20.5717ZM44.5093 21.411C43.8142 21.411 43.2503 21.9749 43.2503 22.67C43.2503 23.365 43.8142 23.9289 44.5093 23.9289C45.2043 23.9289 45.7682 23.365 45.7682 22.67C45.7682 21.9749 45.2043 21.411 44.5093 21.411Z" fill="#40605A"/>
<path d="M19.172 47.598C18.528 47.598 17.9493 47.486 17.436 47.262C16.932 47.0287 16.5353 46.7113 16.246 46.31C15.9567 45.8993 15.8073 45.428 15.798 44.896H17.156C17.2027 45.3533 17.3893 45.7407 17.716 46.058C18.052 46.366 18.5373 46.52 19.172 46.52C19.7787 46.52 20.2547 46.3707 20.6 46.072C20.9547 45.764 21.132 45.372 21.132 44.896C21.132 44.5227 21.0293 44.2193 20.824 43.986C20.6187 43.7527 20.362 43.5753 20.054 43.454C19.746 43.3327 19.3307 43.202 18.808 43.062C18.164 42.894 17.646 42.726 17.254 42.558C16.8713 42.39 16.54 42.1287 16.26 41.774C15.9893 41.41 15.854 40.9247 15.854 40.318C15.854 39.786 15.9893 39.3147 16.26 38.904C16.5307 38.4933 16.9087 38.176 17.394 37.952C17.8887 37.728 18.4533 37.616 19.088 37.616C20.0027 37.616 20.7493 37.8447 21.328 38.302C21.916 38.7593 22.2473 39.366 22.322 40.122H20.922C20.8753 39.7487 20.6793 39.422 20.334 39.142C19.9887 38.8527 19.5313 38.708 18.962 38.708C18.43 38.708 17.996 38.848 17.66 39.128C17.324 39.3987 17.156 39.7813 17.156 40.276C17.156 40.6307 17.254 40.92 17.45 41.144C17.6553 41.368 17.9027 41.5407 18.192 41.662C18.4907 41.774 18.906 41.9047 19.438 42.054C20.082 42.2313 20.6 42.4087 20.992 42.586C21.384 42.754 21.72 43.02 22 43.384C22.28 43.7387 22.42 44.224 22.42 44.84C22.42 45.316 22.294 45.764 22.042 46.184C21.79 46.604 21.4167 46.9447 20.922 47.206C20.4273 47.4673 19.844 47.598 19.172 47.598ZM31.2948 43.37C31.2948 43.6127 31.2808 43.8693 31.2528 44.14H25.1208C25.1675 44.896 25.4241 45.4887 25.8908 45.918C26.3668 46.338 26.9408 46.548 27.6128 46.548C28.1635 46.548 28.6208 46.422 28.9848 46.17C29.3581 45.9087 29.6195 45.5633 29.7688 45.134H31.1408C30.9355 45.8713 30.5248 46.4733 29.9088 46.94C29.2928 47.3973 28.5275 47.626 27.6128 47.626C26.8848 47.626 26.2315 47.4627 25.6528 47.136C25.0835 46.8093 24.6355 46.3473 24.3088 45.75C23.9821 45.1433 23.8188 44.4433 23.8188 43.65C23.8188 42.8567 23.9775 42.1613 24.2948 41.564C24.6121 40.9667 25.0555 40.5093 25.6248 40.192C26.2035 39.8653 26.8661 39.702 27.6128 39.702C28.3408 39.702 28.9848 39.8607 29.5448 40.178C30.1048 40.4953 30.5341 40.934 30.8328 41.494C31.1408 42.0447 31.2948 42.67 31.2948 43.37ZM29.9788 43.104C29.9788 42.6187 29.8715 42.2033 29.6568 41.858C29.4421 41.5033 29.1481 41.2373 28.7748 41.06C28.4108 40.8733 28.0048 40.78 27.5568 40.78C26.9128 40.78 26.3621 40.9853 25.9048 41.396C25.4568 41.8067 25.2001 42.376 25.1348 43.104H29.9788ZM43.1964 39.828L40.8024 47.5H39.4864L37.6384 41.41L35.7904 47.5H34.4744L32.0664 39.828H33.3684L35.1324 46.268L37.0364 39.828H38.3384L40.2004 46.282L41.9364 39.828H43.1964ZM45.1188 38.582C44.8761 38.582 44.6708 38.498 44.5028 38.33C44.3348 38.162 44.2508 37.9567 44.2508 37.714C44.2508 37.4713 44.3348 37.266 44.5028 37.098C44.6708 36.93 44.8761 36.846 45.1188 36.846C45.3521 36.846 45.5481 36.93 45.7068 37.098C45.8748 37.266 45.9588 37.4713 45.9588 37.714C45.9588 37.9567 45.8748 38.162 45.7068 38.33C45.5481 38.498 45.3521 38.582 45.1188 38.582ZM45.7348 39.828V47.5H44.4608V39.828H45.7348ZM51.6441 39.688C52.5775 39.688 53.3335 39.9727 53.9121 40.542C54.4908 41.102 54.7801 41.914 54.7801 42.978V47.5H53.5201V43.16C53.5201 42.3947 53.3288 41.8113 52.9461 41.41C52.5635 40.9993 52.0408 40.794 51.3781 40.794C50.7061 40.794 50.1695 41.004 49.7681 41.424C49.3761 41.844 49.1801 42.4553 49.1801 43.258V47.5H47.9061V39.828H49.1801V40.92C49.4321 40.528 49.7728 40.2247 50.2021 40.01C50.6408 39.7953 51.1215 39.688 51.6441 39.688ZM60.0252 39.702C60.6879 39.702 61.2665 39.8467 61.7612 40.136C62.2652 40.4253 62.6385 40.7893 62.8812 41.228V39.828H64.1692V47.668C64.1692 48.368 64.0199 48.9887 63.7212 49.53C63.4225 50.0807 62.9932 50.51 62.4332 50.818C61.8825 51.126 61.2385 51.28 60.5012 51.28C59.4932 51.28 58.6532 51.042 57.9812 50.566C57.3092 50.09 56.9125 49.4413 56.7912 48.62H58.0512C58.1912 49.0867 58.4805 49.46 58.9192 49.74C59.3579 50.0293 59.8852 50.174 60.5012 50.174C61.2012 50.174 61.7705 49.9547 62.2092 49.516C62.6572 49.0773 62.8812 48.4613 62.8812 47.668V46.058C62.6292 46.506 62.2559 46.8793 61.7612 47.178C61.2665 47.4767 60.6879 47.626 60.0252 47.626C59.3439 47.626 58.7232 47.458 58.1632 47.122C57.6125 46.786 57.1785 46.3147 56.8612 45.708C56.5439 45.1013 56.3852 44.4107 56.3852 43.636C56.3852 42.852 56.5439 42.166 56.8612 41.578C57.1785 40.9807 57.6125 40.5187 58.1632 40.192C58.7232 39.8653 59.3439 39.702 60.0252 39.702ZM62.8812 43.65C62.8812 43.0713 62.7645 42.5673 62.5312 42.138C62.2979 41.7087 61.9805 41.382 61.5792 41.158C61.1872 40.9247 60.7532 40.808 60.2772 40.808C59.8012 40.808 59.3672 40.92 58.9752 41.144C58.5832 41.368 58.2705 41.6947 58.0372 42.124C57.8039 42.5533 57.6872 43.0573 57.6872 43.636C57.6872 44.224 57.8039 44.7373 58.0372 45.176C58.2705 45.6053 58.5832 45.9367 58.9752 46.17C59.3672 46.394 59.8012 46.506 60.2772 46.506C60.7532 46.506 61.1872 46.394 61.5792 46.17C61.9805 45.9367 62.2979 45.6053 62.5312 45.176C62.7645 44.7373 62.8812 44.2287 62.8812 43.65Z" fill="#707070"/>
<path d="M20.684 61.924L18.632 68.5H17.504L15.92 63.28L14.336 68.5H13.208L11.144 61.924H12.26L13.772 67.444L15.404 61.924H16.52L18.116 67.456L19.604 61.924H20.684ZM22.3318 60.856C22.1238 60.856 21.9478 60.784 21.8038 60.64C21.6598 60.496 21.5878 60.32 21.5878 60.112C21.5878 59.904 21.6598 59.728 21.8038 59.584C21.9478 59.44 22.1238 59.368 22.3318 59.368C22.5318 59.368 22.6998 59.44 22.8358 59.584C22.9798 59.728 23.0518 59.904 23.0518 60.112C23.0518 60.32 22.9798 60.496 22.8358 60.64C22.6998 60.784 22.5318 60.856 22.3318 60.856ZM22.8598 61.924V68.5H21.7678V61.924H22.8598ZM26.0529 62.824V66.7C26.0529 67.02 26.1209 67.248 26.2569 67.384C26.3929 67.512 26.6289 67.576 26.9649 67.576H27.7689V68.5H26.7849C26.1769 68.5 25.7209 68.36 25.4169 68.08C25.1129 67.8 24.9609 67.34 24.9609 66.7V62.824H24.1089V61.924H24.9609V60.268H26.0529V61.924H27.7689V62.824H26.0529ZM32.356 61.804C32.852 61.804 33.3 61.912 33.7 62.128C34.1 62.336 34.412 62.652 34.636 63.076C34.868 63.5 34.984 64.016 34.984 64.624V68.5H33.904V64.78C33.904 64.124 33.74 63.624 33.412 63.28C33.084 62.928 32.636 62.752 32.068 62.752C31.492 62.752 31.032 62.932 30.688 63.292C30.352 63.652 30.184 64.176 30.184 64.864V68.5H29.092V59.62H30.184V62.86C30.4 62.524 30.696 62.264 31.072 62.08C31.456 61.896 31.884 61.804 32.356 61.804ZM48.451 60.196V68.5H47.359V62.308L44.599 68.5H43.831L41.059 62.296V68.5H39.967V60.196H41.143L44.215 67.06L47.287 60.196H48.451ZM49.8949 65.188C49.8949 64.516 50.0309 63.928 50.3029 63.424C50.5749 62.912 50.9469 62.516 51.4189 62.236C51.8989 61.956 52.4309 61.816 53.0149 61.816C53.5909 61.816 54.0909 61.94 54.5149 62.188C54.9389 62.436 55.2549 62.748 55.4629 63.124V61.924H56.5669V68.5H55.4629V67.276C55.2469 67.66 54.9229 67.98 54.4909 68.236C54.0669 68.484 53.5709 68.608 53.0029 68.608C52.4189 68.608 51.8909 68.464 51.4189 68.176C50.9469 67.888 50.5749 67.484 50.3029 66.964C50.0309 66.444 49.8949 65.852 49.8949 65.188ZM55.4629 65.2C55.4629 64.704 55.3629 64.272 55.1629 63.904C54.9629 63.536 54.6909 63.256 54.3469 63.064C54.0109 62.864 53.6389 62.764 53.2309 62.764C52.8229 62.764 52.4509 62.86 52.1149 63.052C51.7789 63.244 51.5109 63.524 51.3109 63.892C51.1109 64.26 51.0109 64.692 51.0109 65.188C51.0109 65.692 51.1109 66.132 51.3109 66.508C51.5109 66.876 51.7789 67.16 52.1149 67.36C52.4509 67.552 52.8229 67.648 53.2309 67.648C53.6389 67.648 54.0109 67.552 54.3469 67.36C54.6909 67.16 54.9629 66.876 55.1629 66.508C55.3629 66.132 55.4629 65.696 55.4629 65.2ZM59.5043 62.992C59.6963 62.616 59.9683 62.324 60.3203 62.116C60.6803 61.908 61.1163 61.804 61.6283 61.804V62.932H61.3403C60.1163 62.932 59.5043 63.596 59.5043 64.924V68.5H58.4123V61.924H59.5043V62.992ZM62.4808 65.2C62.4808 64.52 62.6168 63.928 62.8888 63.424C63.1608 62.912 63.5368 62.516 64.0168 62.236C64.5048 61.956 65.0608 61.816 65.6848 61.816C66.4928 61.816 67.1568 62.012 67.6768 62.404C68.2048 62.796 68.5528 63.34 68.7208 64.036H67.5448C67.4328 63.636 67.2128 63.32 66.8848 63.088C66.5648 62.856 66.1648 62.74 65.6848 62.74C65.0608 62.74 64.5568 62.956 64.1728 63.388C63.7888 63.812 63.5968 64.416 63.5968 65.2C63.5968 65.992 63.7888 66.604 64.1728 67.036C64.5568 67.468 65.0608 67.684 65.6848 67.684C66.1648 67.684 66.5648 67.572 66.8848 67.348C67.2048 67.124 67.4248 66.804 67.5448 66.388H68.7208C68.5448 67.06 68.1928 67.6 67.6648 68.008C67.1368 68.408 66.4768 68.608 65.6848 68.608C65.0608 68.608 64.5048 68.468 64.0168 68.188C63.5368 67.908 63.1608 67.512 62.8888 67C62.6168 66.488 62.4808 65.888 62.4808 65.2Z" fill="#18322D"/>
</svg>
