<svg width="23" height="23" viewBox="0 0 23 23" fill="none" xmlns="http://www.w3.org/2000/svg">
<path d="M20.8564 9.10448C20.7839 8.87396 20.644 8.67043 20.4548 8.52006C20.2656 8.3697 20.0357 8.27938 19.7947 8.26073L14.5688 7.80897C14.5371 7.80586 14.507 7.79425 14.4814 7.77537C14.4559 7.75649 14.436 7.73105 14.4237 7.70174L12.382 2.83612C12.2875 2.61415 12.1298 2.42488 11.9285 2.29185C11.7272 2.15882 11.4913 2.08789 11.25 2.08789C11.0087 2.08789 10.7728 2.15882 10.5715 2.29185C10.3702 2.42488 10.2125 2.61415 10.118 2.83612L8.07627 7.70174C8.06404 7.73105 8.04409 7.75649 8.01856 7.77537C7.99303 7.79425 7.96285 7.80586 7.93125 7.80897L2.70527 8.26073C2.46432 8.27938 2.23445 8.3697 2.04525 8.52006C1.85604 8.67043 1.71614 8.87396 1.64356 9.10448C1.56668 9.33532 1.55996 9.58377 1.62426 9.81843C1.68855 10.0531 1.82098 10.2634 2.00479 10.4228L5.96953 13.8813C5.99381 13.9029 6.01184 13.9306 6.02174 13.9615C6.03163 13.9924 6.03303 14.0255 6.02578 14.0571L4.83398 19.1996C4.77843 19.4364 4.79428 19.6843 4.87953 19.912C4.96479 20.1398 5.11562 20.3372 5.31299 20.4793C5.50729 20.6226 5.74011 20.7045 5.98139 20.7142C6.22266 20.7239 6.4613 20.6611 6.6665 20.5338L11.1586 17.8092C11.185 17.7928 11.2154 17.7842 11.2465 17.7842C11.2775 17.7842 11.308 17.7928 11.3344 17.8092L15.8265 20.5338C16.0338 20.6607 16.2741 20.7234 16.517 20.7139C16.7599 20.7044 16.9946 20.6232 17.1914 20.4804C17.3882 20.3377 17.5383 20.1399 17.6227 19.9119C17.7072 19.684 17.7223 19.4361 17.666 19.1996L16.4777 14.0554C16.4705 14.0237 16.4719 13.9907 16.4818 13.9598C16.4917 13.9288 16.5097 13.9011 16.534 13.8796L20.4987 10.4211C20.6816 10.2614 20.8131 10.0512 20.8768 9.81689C20.9404 9.58262 20.9334 9.33474 20.8564 9.10448ZM19.8018 9.62479L15.837 13.0833C15.6681 13.2303 15.5425 13.4206 15.4737 13.6337C15.4049 13.8468 15.3956 14.0746 15.4468 14.2927L16.6351 19.4369C16.6438 19.4715 16.6419 19.5079 16.6295 19.5413C16.6171 19.5748 16.5948 19.6036 16.5656 19.6241C16.5392 19.6453 16.5067 19.6574 16.4729 19.6589C16.4391 19.6603 16.4057 19.6509 16.3775 19.632L11.8854 16.9074C11.6939 16.791 11.4741 16.7294 11.25 16.7294C11.0259 16.7294 10.8061 16.791 10.6146 16.9074L6.12246 19.632C6.09435 19.6509 6.06095 19.6603 6.02712 19.6589C5.9933 19.6574 5.9608 19.6453 5.93437 19.6241C5.90518 19.6036 5.8829 19.5748 5.8705 19.5413C5.8581 19.5079 5.85616 19.4715 5.86494 19.4369L7.05322 14.2927C7.10438 14.0746 7.09508 13.8468 7.02631 13.6337C6.95754 13.4206 6.83192 13.2303 6.66299 13.0833L2.69824 9.62479C2.67113 9.60173 2.65165 9.57098 2.64239 9.53661C2.63313 9.50224 2.63453 9.46587 2.64639 9.43231C2.65526 9.39889 2.67451 9.36914 2.70136 9.34735C2.7282 9.32555 2.76127 9.31283 2.7958 9.31102L8.02266 8.85926C8.24642 8.8402 8.4607 8.76025 8.64228 8.6281C8.82385 8.49595 8.9658 8.31662 9.05273 8.10955L11.0944 3.24393C11.1086 3.21373 11.1311 3.1882 11.1593 3.17031C11.1875 3.15242 11.2201 3.14293 11.2535 3.14293C11.2869 3.14293 11.3196 3.15242 11.3477 3.17031C11.3759 3.1882 11.3984 3.21373 11.4126 3.24393L13.4473 8.10955C13.5339 8.31613 13.6753 8.49512 13.8562 8.62724C14.0371 8.75935 14.2507 8.83958 14.4738 8.85926L19.7007 9.31102C19.7352 9.31283 19.7683 9.32555 19.7951 9.34735C19.822 9.36914 19.8412 9.39889 19.8501 9.43231C19.8624 9.46553 19.8643 9.50168 19.8557 9.53602C19.8471 9.57037 19.8283 9.60131 19.8018 9.62479Z" fill="#707070"/>
</svg>
