<svg width="30" height="31" viewBox="0 0 30 31" fill="none" xmlns="http://www.w3.org/2000/svg">
<path d="M28.9481 20.1471C29.1549 20.1474 29.3571 20.2087 29.5292 20.3235C29.7013 20.4382 29.8357 20.6012 29.9154 20.792C29.9952 20.9829 30.0169 21.193 29.9777 21.3961C29.9385 21.5992 29.8402 21.7862 29.6951 21.9336L21.5546 30.1881C21.4577 30.2862 21.3424 30.3642 21.2153 30.4178C21.0882 30.4713 20.9519 30.4993 20.814 30.5002C20.5355 30.5018 20.2677 30.3928 20.0696 30.1971C19.8715 30.0014 19.7592 29.735 19.7575 29.4565C19.7559 29.178 19.8649 28.9102 20.0606 28.7121L26.4386 22.2471H1.0541C0.775624 22.2471 0.508552 22.1365 0.311639 21.9396C0.114726 21.7427 0.0041012 21.4756 0.0041012 21.1971C0.0041012 20.9186 0.114726 20.6516 0.311639 20.4546C0.508552 20.2577 0.775624 20.1471 1.0541 20.1471H28.9481ZM9.9281 0.803103C10.0263 0.899915 10.1045 1.01512 10.1582 1.14215C10.2118 1.26917 10.24 1.40553 10.2409 1.54343C10.2419 1.68133 10.2157 1.81807 10.1638 1.94584C10.112 2.07361 10.0354 2.18991 9.9386 2.2881L3.5606 8.7531H28.9451C29.2236 8.7531 29.4907 8.86373 29.6876 9.06064C29.8845 9.25755 29.9951 9.52463 29.9951 9.8031C29.9951 10.0816 29.8845 10.3487 29.6876 10.5456C29.4907 10.7425 29.2236 10.8531 28.9451 10.8531H1.0496C0.842763 10.8528 0.640612 10.7915 0.468516 10.6767C0.29642 10.562 0.162044 10.399 0.0822524 10.2082C0.00246041 10.0173 -0.0191936 9.80719 0.0200076 9.6041C0.0592087 9.40101 0.157519 9.21402 0.302601 9.0666L8.4446 0.812103C8.54151 0.713997 8.6568 0.635941 8.78388 0.582394C8.91096 0.528846 9.04734 0.500855 9.18524 0.500019C9.32313 0.499184 9.45985 0.525519 9.58757 0.577523C9.71528 0.629526 9.83001 0.706179 9.9281 0.803103Z" fill="#18322D"/>
</svg>
